<svg xmlns="http://www.w3.org/2000/svg" viewBox="0 0 1200 420" role="img" aria-label="Selected tools index: TypeScript, React, Next.js, Laravel, PHP, Flutter, PostgreSQL, MySQL, Rust, Soroban.">
  <defs>
    <filter id="grain">
      <feTurbulence type="fractalNoise" baseFrequency="0.8" numOctaves="2" stitchTiles="stitch"/>
      <feColorMatrix type="matrix" values="0 0 0 0 0  0 0 0 0 0  0 0 0 0 0  0 0 0 0.04 0"/>
    </filter>
  </defs>
  <rect width="1200" height="420" fill="#E9E5DC"/>
  <rect width="1200" height="420" filter="url(#grain)"/>
  <text x="1160" y="380" text-anchor="end" font-family="Inter, 'Helvetica Neue', Helvetica, Arial, ui-sans-serif, sans-serif" font-size="260" font-weight="800" letter-spacing="-10" fill="#111111" opacity="0.05">05</text>

  <text x="72" y="66" font-family="Inter, 'Helvetica Neue', Helvetica, Arial, ui-sans-serif, sans-serif" font-size="12" letter-spacing="4" fill="#A68A5B">05 / SELECTED TOOLS</text>
  <text x="1128" y="66" text-anchor="end" font-family="Inter, 'Helvetica Neue', Helvetica, Arial, ui-sans-serif, sans-serif" font-size="12" letter-spacing="4" fill="#76726A">TECHNICAL CATALOGUE</text>
  <line x1="72" y1="84" x2="1128" y2="84" stroke="#C5BFB4"/>

  <!-- two-column typographic index -->
  <g font-family="Inter, 'Helvetica Neue', Helvetica, Arial, ui-sans-serif, sans-serif">
    <g font-size="14" fill="#A68A5B" font-weight="600">
      <text x="72" y="152">01</text><text x="72" y="208">02</text><text x="72" y="264">03</text>
      <text x="72" y="320">04</text><text x="72" y="376">05</text>
      <text x="620" y="152">06</text><text x="620" y="208">07</text><text x="620" y="264">08</text>
      <text x="620" y="320">09</text><text x="620" y="376">10</text>
    </g>
    <g font-size="32" font-weight="700" letter-spacing="1" fill="#111111">
      <text x="128" y="156">TYPESCRIPT</text>
      <text x="128" y="212">REACT</text>
      <text x="128" y="268">NEXT.JS</text>
      <text x="128" y="324">LARAVEL</text>
      <text x="128" y="380">PHP</text>
      <text x="676" y="156">FLUTTER</text>
      <text x="676" y="212">POSTGRESQL</text>
      <text x="676" y="268">MYSQL</text>
      <text x="676" y="324">RUST</text>
      <text x="676" y="380">SOROBAN</text>
    </g>
    <g stroke="#C5BFB4">
      <line x1="72" y1="170" x2="552" y2="170"/><line x1="72" y1="226" x2="552" y2="226"/>
      <line x1="72" y1="282" x2="552" y2="282"/><line x1="72" y1="338" x2="552" y2="338"/>
      <line x1="620" y1="170" x2="1128" y2="170"/><line x1="620" y1="226" x2="1128" y2="226"/>
      <line x1="620" y1="282" x2="1128" y2="282"/><line x1="620" y1="338" x2="1128" y2="338"/>
    </g>
  </g>
</svg>
