<svg xmlns="http://www.w3.org/2000/svg" viewBox="0 0 680 560" role="img" aria-label="Poketto, personal finance tracker. One Laravel API serving a Next.js web app and a Flutter mobile app. Cover shows monthly spending bars and sample ledger entries.">
  <defs>
    <filter id="grain">
      <feTurbulence type="fractalNoise" baseFrequency="0.8" numOctaves="2" stitchTiles="stitch"/>
      <feColorMatrix type="matrix" values="0 0 0 0 0  0 0 0 0 0  0 0 0 0 0  0 0 0 0.04 0"/>
    </filter>
  </defs>
  <rect width="680" height="560" fill="#F5F2EB"/>
  <rect width="680" height="560" filter="url(#grain)"/>

  <text x="640" y="180" text-anchor="end" font-family="Inter, 'Helvetica Neue', Helvetica, Arial, ui-sans-serif, sans-serif" font-size="150" font-weight="800" letter-spacing="-6" fill="#A68A5B" opacity="0.28">02</text>

  <text x="48" y="56" font-family="Inter, 'Helvetica Neue', Helvetica, Arial, ui-sans-serif, sans-serif" font-size="11" letter-spacing="4" fill="#A68A5B">PERSONAL FINANCE</text>
  <line x1="48" y1="72" x2="632" y2="72" stroke="#C5BFB4"/>

  <text x="44" y="146" font-family="Inter, 'Helvetica Neue', Helvetica, Arial, ui-sans-serif, sans-serif" font-size="56" font-weight="800" letter-spacing="-2" fill="#111111">POKETTO</text>
  <text font-family="Georgia, 'Times New Roman', serif" font-size="18" font-style="italic" fill="#292826">
    <tspan x="48" y="186">One API. A web app and a mobile app,</tspan>
    <tspan x="48" y="212">tracking the rhythm of everyday money.</tspan>
  </text>

  <!-- monthly spending bars -->
  <g fill="#29483C">
    <rect x="48"  y="330" width="52" height="70"/>
    <rect x="120" y="296" width="52" height="104"/>
    <rect x="192" y="352" width="52" height="48"/>
    <rect x="264" y="268" width="52" height="132"/>
    <rect x="336" y="318" width="52" height="82"/>
    <rect x="408" y="284" width="52" height="116" fill="#A68A5B"/>
  </g>
  <line x1="48" y1="400" x2="632" y2="400" stroke="#292826"/>
  <g font-family="Inter, 'Helvetica Neue', Helvetica, Arial, ui-sans-serif, sans-serif" font-size="11" letter-spacing="1" fill="#76726A">
    <text x="48" y="422">JAN</text><text x="120" y="422">FEB</text><text x="192" y="422">MAR</text>
    <text x="264" y="422">APR</text><text x="336" y="422">MAY</text><text x="408" y="422">JUN</text>
    <text x="632" y="422" text-anchor="end">MONTHLY SPEND, ILLUSTRATIVE</text>
  </g>

  <!-- ledger strip -->
  <g font-family="ui-monospace, 'Segoe UI', Helvetica, Arial, sans-serif" font-size="13" fill="#292826">
    <text x="48" y="462">Groceries</text>
    <text x="632" y="462" text-anchor="end" fill="#76726A">- 42.80</text>
    <line x1="48" y1="476" x2="632" y2="476" stroke="#C5BFB4"/>
    <text x="48" y="500">Salary</text>
    <text x="632" y="500" text-anchor="end" fill="#29483C">+ 1,850.00</text>
  </g>

  <line x1="48" y1="518" x2="632" y2="518" stroke="#C5BFB4"/>
  <g font-family="Inter, 'Helvetica Neue', Helvetica, Arial, ui-sans-serif, sans-serif" font-size="12" letter-spacing="1" fill="#76726A">
    <text x="48" y="544">LARAVEL · NEXT.JS · FLUTTER</text>
    <text x="632" y="544" text-anchor="end" fill="#29483C" font-weight="600">IN DEVELOPMENT</text>
  </g>
</svg>
